<?xml version="1.0" encoding="UTF-8"?>
<svg width="26px" height="19px" viewBox="0 0 26 19" version="1.1" xmlns="http://www.w3.org/2000/svg" xmlns:xlink="http://www.w3.org/1999/xlink">
    <!-- Generator: Sketch 51.3 (57544) - http://www.bohemiancoding.com/sketch -->
    <title>icon-people-blue</title>
    <desc>Created with Sketch.</desc>
    <defs></defs>
    <g id="Desktop" stroke="none" stroke-width="1" fill="none" fill-rule="evenodd">
        <g id="3.3.1-Recetas-/-detalle" transform="translate(-922.000000, -365.000000)" fill="#002654">
            <g id="detalles" transform="translate(722.000000, 365.000000)">
                <g id="icon-people-blue" transform="translate(200.000000, 0.000000)">
                    <path d="M19.2252273,13.2211398 L19.3010606,13.1998925 C21.2130455,12.6597204 22.548303,10.8477742 22.548303,8.79352688 L22.548303,6.61016129 C22.548303,4.09174194 20.5730909,2.04301075 18.1452424,2.04301075 C17.3232879,2.04301075 16.5202424,2.28163441 15.8227727,2.73273118 L15.7575758,2.77502151 L15.7812121,2.8506129 C15.8540909,3.08637634 15.9143636,3.32683871 15.9602576,3.56546237 L15.989803,3.71991398 L16.113697,3.6287957 C16.7132727,3.18791398 17.4154697,2.95480645 18.1452424,2.95480645 C20.0883485,2.95480645 21.6692273,4.59452688 21.6692273,6.61016129 L21.6692273,8.79352688 C21.6692273,10.5380538 20.4706667,12.0464086 18.8190758,12.379828 L18.6435758,12.4153763 L18.7664848,12.5502151 C18.9413939,12.7424624 19.0792727,12.9383871 19.1883939,13.1494301 L19.2252273,13.2211398 Z" id="Fill-1"></path>
                    <path d="M15.7171773,12.3097323 L13.8107076,11.7575065 C13.684647,11.720528 13.5512985,11.736872 13.4366621,11.8036785 C13.3218288,11.8706892 13.2391015,11.9801946 13.203647,12.1115602 C13.1683894,12.2429258 13.1843439,12.380829 13.24895,12.4997323 C13.3133591,12.6188398 13.4185409,12.7044419 13.5451924,12.7410118 L15.4481167,13.2924204 C16.3508288,13.5614849 16.8085864,13.9954204 16.8085864,14.5819688 L16.8085864,16.5044419 C16.8085864,17.2045817 16.2594348,17.7741731 15.5844197,17.7741731 L2.20899545,17.7741731 C1.5339803,17.7741731 0.984828788,17.2045817 0.984828788,16.5044419 L0.984828788,14.5819688 C0.984828788,14.3647968 0.984828788,13.7032699 2.33978333,13.2940548 L4.33646515,12.7213989 C4.59764697,12.6464204 4.75187424,12.3646892 4.67978333,12.0927645 C4.60769242,11.8214527 4.33528333,11.6614849 4.07390455,11.7366677 L2.07131364,12.311571 C0.35925303,12.8288613 -1.96969695e-05,13.8317753 -1.96969695e-05,14.5819688 L-1.96969695e-05,16.5044419 C-1.96969695e-05,17.7678398 0.990934848,18.7956785 2.20899545,18.7956785 L15.5844197,18.7956785 C16.8024803,18.7956785 17.7934348,17.7678398 17.7934348,16.5044419 L17.7934348,14.5819688 C17.7934348,13.8276892 17.4333742,12.8213022 15.7171773,12.3097323" id="Fill-11"></path>
                    <path d="M24.0947318,12.790371 L22.4435348,12.3118978 C22.3302773,12.2790054 22.2120955,12.2935108 22.1096712,12.3529624 C22.00705,12.4128226 21.9333833,12.5106828 21.9018682,12.6279516 C21.8701561,12.7450161 21.8845348,12.8682097 21.94205,12.9742419 C21.9995652,13.0804785 22.0935197,13.1570914 22.2063833,13.1897796 L23.8538379,13.6670269 C24.6293076,13.8982957 25.0224591,14.2695108 25.0224591,14.770457 L25.0224591,16.4351022 C25.0224591,17.0337043 24.5528833,17.5205538 23.9757621,17.5205538 L19.3987773,17.5205538 L19.374747,17.5871559 C19.2857167,17.8339516 19.1702924,18.0646075 19.0314288,18.2719731 L18.9238833,18.4323495 L23.9757621,18.4323495 C25.0376258,18.4323495 25.9015348,17.5362849 25.9015348,16.4351022 L25.9015348,14.770457 C25.9015348,14.1128118 25.5879591,13.2353387 24.0947318,12.790371" id="Fill-3"></path>
                    <path d="M4.84720758,7.80973548 L4.84720758,5.28784301 C4.84720758,2.95125161 6.67981364,1.05023011 8.93216212,1.05023011 C11.1849045,1.05023011 13.0177076,2.95125161 13.0177076,5.28784301 L13.0177076,7.80973548 C13.0177076,10.1465312 11.1849045,12.0473484 8.93216212,12.0473484 C6.67981364,12.0473484 4.84720758,10.1465312 4.84720758,7.80973548 M8.93216212,13.0688538 C11.72795,13.0688538 14.0025561,10.7095849 14.0025561,7.80973548 L14.0025561,5.28784301 C14.0025561,2.38799355 11.72795,0.0287247312 8.93216212,0.0287247312 C6.13657121,0.0287247312 3.86235909,2.38799355 3.86235909,5.28784301 L3.86235909,7.81055269 C3.86235909,10.7099935 6.13657121,13.0688538 8.93216212,13.0688538" id="Fill-8"></path>
                </g>
            </g>
        </g>
    </g>
</svg>