<?xml version="1.0" encoding="UTF-8"?>
<svg width="50px" height="50px" viewBox="0 0 50 50" version="1.1" xmlns="http://www.w3.org/2000/svg" xmlns:xlink="http://www.w3.org/1999/xlink">
    <!-- Generator: Sketch 51.3 (57544) - http://www.bohemiancoding.com/sketch -->
    <title>icon-share</title>
    <desc>Created with Sketch.</desc>
    <defs></defs>
    <g id="icon-share" stroke="none" stroke-width="1" fill="none" fill-rule="evenodd">
        <g id="Group-2">
            <rect id="Rectangle" fill-rule="nonzero" x="0" y="0" width="50" height="50"></rect>
            <g id="Group" transform="translate(10.000000, 11.000000)" fill="#FCA311">
                <path d="M24.7500387,17.1111354 C23.0637313,17.1111354 21.5767603,17.9546354 20.6155869,19.2403021 L10.4597742,15.1894896 C10.4700398,15.0512396 10.499993,14.9188229 10.499993,14.7778021 C10.499993,14.5161042 10.4600554,14.2655625 10.4254616,14.0137083 L20.8323607,9.03196875 C21.7951512,10.1612292 23.1859347,10.8889375 24.7500387,10.8889375 C27.6445276,10.8889375 30,8.44622917 30,5.44446875 C30,2.44270833 27.6445276,0 24.7500387,0 C21.8554795,0 19.500007,2.44270833 19.500007,5.44446875 C19.500007,5.70609375 19.5398743,5.95663542 19.5745384,6.2085625 L9.16763932,11.1902292 C8.20484876,10.0609687 6.81406533,9.33333333 5.25003164,9.33333333 C2.35547243,9.33333333 0,11.7760417 0,14.7778021 C0,17.7794896 2.35547243,20.2221979 5.25003164,20.2221979 C6.93626865,20.2221979 8.42316941,19.3786979 9.3844131,18.0930312 L19.5401555,22.1438437 C19.5299602,22.2820937 19.500007,22.4145104 19.500007,22.5555312 C19.500007,25.5572917 21.8554795,28 24.7500387,28 C27.6445276,28 30,25.5572917 30,22.5555312 C30,19.5538438 27.6445276,17.1111354 24.7500387,17.1111354" id="Fill-1"></path>
            </g>
        </g>
    </g>
</svg>