<?xml version="1.0" encoding="UTF-8"?>
<svg width="50px" height="50px" viewBox="0 0 50 50" version="1.1" xmlns="http://www.w3.org/2000/svg" xmlns:xlink="http://www.w3.org/1999/xlink">
    <!-- Generator: Sketch 51.3 (57544) - http://www.bohemiancoding.com/sketch -->
    <title>icon-menu</title>
    <desc>Created with Sketch.</desc>
    <defs></defs>
    <g id="icon-menu" stroke="none" stroke-width="1" fill="none" fill-rule="evenodd">
        <g fill-rule="nonzero">
            <rect id="Rectangle-3" x="0" y="0" width="50" height="50"></rect>
            <g id="menu" transform="translate(3.000000, 8.000000)" fill="#FFFFFF">
                <path d="M2.21981478,3.87596899 C1.21092114,3.87596899 0.393051242,3.04686668 0.393051242,2.02411714 C0.393051242,1.0013676 1.21092114,0.172265289 2.21981478,0.172265289 L42.5880268,0.172265289 C43.5969205,0.172265289 44.4147904,1.0013676 44.4147904,2.02411714 C44.4147904,3.04686668 43.5969205,3.87596899 42.5880268,3.87596899 L2.21981478,3.87596899 Z" id="Line-4"></path>
                <path d="M2.21981478,18.5185185 C1.21092114,18.5185185 0.393051242,17.6894162 0.393051242,16.6666667 C0.393051242,15.6439171 1.21092114,14.8148148 2.21981478,14.8148148 L42.5880268,14.8148148 C43.5969205,14.8148148 44.4147904,15.6439171 44.4147904,16.6666667 C44.4147904,17.6894162 43.5969205,18.5185185 42.5880268,18.5185185 L2.21981478,18.5185185 Z" id="Line-4"></path>
                <path d="M2.21981478,33.161068 C1.21092114,33.161068 0.393051242,32.3319657 0.393051242,31.3092162 C0.393051242,30.2864667 1.21092114,29.4573643 2.21981478,29.4573643 L42.5880268,29.4573643 C43.5969205,29.4573643 44.4147904,30.2864667 44.4147904,31.3092162 C44.4147904,32.3319657 43.5969205,33.161068 42.5880268,33.161068 L2.21981478,33.161068 Z" id="Line-4"></path>
            </g>
        </g>
    </g>
</svg>