<?xml version="1.0" encoding="UTF-8"?>
<svg width="50px" height="50px" viewBox="0 0 50 50" version="1.1" xmlns="http://www.w3.org/2000/svg" xmlns:xlink="http://www.w3.org/1999/xlink">
    <!-- Generator: Sketch 51.3 (57544) - http://www.bohemiancoding.com/sketch -->
    <title>icon-chef-hat</title>
    <desc>Created with Sketch.</desc>
    <defs></defs>
    <g id="icon-chef-hat" stroke="none" stroke-width="1" fill="none" fill-rule="evenodd">
        <path d="M16.599962,24.8750205 C16.599962,24.391368 16.2421399,24 15.7999435,24 C15.3578221,24 15,24.391368 15,24.8750205 C15,27.1726979 17.3171812,30.327431 17.5811791,30.6804087 C17.7398028,30.8905712 17.969451,31 18.2007491,31 C18.3788726,31 18.5584962,30.9350318 18.707745,30.801732 C19.0491422,30.4949375 19.0984168,29.9438559 18.8186691,29.5695502 C17.960901,28.4262896 16.599962,26.141327 16.599962,24.8750205" id="Fill-1" fill="#FFFFFF"></path>
        <path d="M34.1999284,24 C33.7577027,24 33.3999319,24.3913726 33.3999319,24.8750308 C33.3999319,26.1370865 32.0389026,28.4246188 31.1810027,29.5705179 C30.9013114,29.9438435 30.9512643,30.4950137 31.2927592,30.8018117 C31.4411928,30.935113 31.6209033,31 31.7997887,31 C32.0311022,31 32.2600155,30.8906519 32.4185747,30.680487 C32.6826651,30.3275052 35,27.172735 35,24.8750308 C35,24.3913726 34.6421542,24 34.1999284,24" id="Fill-3" fill="#FFFFFF"></path>
        <path d="M25,24 C24.4472673,24 24,24.3913726 24,24.8750308 L24,30.1250513 C24,30.6087094 24.4472673,31 25,31 C25.5527327,31 26,30.6087094 26,30.1250513 L26,24.8750308 C26,24.3913726 25.5527327,24 25,24" id="Fill-5" fill="#FFFFFF"></path>
        <path d="M37.6256304,26.0635285 C37.5801275,26.0820697 37.5370536,26.1040114 37.4965707,26.1300825 C37.3877524,26.1976081 37.298366,26.2869945 37.231812,26.3899023 C37.1642863,26.4919194 37.1187025,26.6100487 37.1002423,26.7365985 C37.0926315,26.7846114 37.0901215,26.8327051 37.0909312,26.8816086 L37.0909312,35.3636032 L12.9191086,35.3636032 L12.9302009,26.8934296 C12.9310106,26.8461455 12.9285007,26.7980517 12.9216995,26.7517392 C12.9031583,26.6209791 12.8551455,26.4995302 12.7851099,26.3941125 C12.7192846,26.295415 12.6332987,26.2094291 12.5286907,26.1436038 C12.4856978,26.1166421 12.4401949,26.0930001 12.3929108,26.0736492 C9.5582923,24.8338174 7.72724697,22.0421918 7.72724697,18.9545547 C7.72724697,14.6683783 11.2138844,11.1818219 15.4999798,11.1818219 C15.6674983,11.1818219 15.844328,11.2020634 16.0178381,11.2157466 C15.1440534,12.7344252 14.6363968,14.4891197 14.6363968,16.3636437 C14.6363968,16.8409381 15.0226044,17.2272267 15.4999798,17.2272267 C15.9773551,17.2272267 16.3636437,16.8409381 16.3636437,16.3636437 C16.3636437,11.6017923 20.2381891,7.72724697 25.0000405,7.72724697 C29.7618109,7.72724697 33.6363563,11.6017923 33.6363563,16.3636437 C33.6363563,16.8409381 34.0226449,17.2272267 34.5000202,17.2272267 C34.9773956,17.2272267 35.3636842,16.8409381 35.3636842,16.3636437 C35.3636842,14.4891197 34.8559466,12.7344252 33.9821619,11.2157466 C34.155753,11.2020634 34.3325017,11.1818219 34.5000202,11.1818219 C38.7861156,11.1818219 42.272753,14.6683783 42.272753,18.9545547 C42.272753,22.0312614 40.4493185,24.8194864 37.6256304,26.0635285 M35.2944583,42.2726721 L14.7088613,42.2726721 C14.228976,42.2726721 13.7777527,42.0854788 13.4378576,41.7455836 C13.0988531,41.4056885 12.9115788,40.9544652 12.9124694,40.4737702 L12.9169225,37.0908502 L37.0909312,37.0908502 L37.0909312,40.4762802 C37.0909312,41.466413 36.2846721,42.2726721 35.2944583,42.2726721 M34.5000202,9.45449393 C33.9767372,9.45449393 33.4297311,9.5238008 32.8616739,9.62921849 C30.9596214,7.41188453 28.143868,6 25.0000405,6 C21.856132,6 19.0403786,7.41188453 17.1382451,9.62921849 C16.5702689,9.5238008 16.0233438,9.45449393 15.4999798,9.45449393 C10.2616437,9.45449393 6,13.7162185 6,18.9545547 C6,22.5440189 8.02414916,25.8071092 11.2020634,27.4205181 L11.1852224,40.4720699 C11.1843318,41.4141899 11.5503789,42.2997147 12.2158382,42.9659836 C12.8821072,43.6331432 13.7668223,44 14.7088613,44 L35.2944583,44 C37.2376415,44 38.8181781,42.4194634 38.8181781,40.4762802 L38.8181781,27.4078874 C41.9842713,25.7902683 44,22.5321978 44,18.9545547 C44,13.7162185 39.7383563,9.45449393 34.5000202,9.45449393" id="Fill-7" fill="#FFFFFF"></path>
    </g>
</svg>