<?xml version="1.0" encoding="UTF-8"?>
<svg width="18px" height="18px" viewBox="0 0 18 18" version="1.1" xmlns="http://www.w3.org/2000/svg" xmlns:xlink="http://www.w3.org/1999/xlink">
    <!-- Generator: Sketch 51.3 (57544) - http://www.bohemiancoding.com/sketch -->
    <title>icon-chef-hat-color</title>
    <desc>Created with Sketch.</desc>
    <defs></defs>
    <g id="Desktop" stroke="none" stroke-width="1" fill="none" fill-rule="evenodd">
        <g id="3.3.1-Recetas-/-detalle" transform="translate(-722.000000, -366.000000)" fill="#002654">
            <g id="detalles" transform="translate(722.000000, 365.000000)">
                <g id="icon-chef-hat-color" transform="translate(0.000000, 1.000000)">
                    <g>
                        <path d="M4.84136017,8.63147506 C4.84136017,8.4063265 4.66090678,8.22413793 4.43790255,8.22413793 C4.21493615,8.22413793 4.03448276,8.4063265 4.03448276,8.63147506 C4.03448276,9.70108349 5.20306123,11.1696662 5.33619808,11.3339834 C5.41619366,11.4318176 5.5320076,11.4827586 5.64865364,11.4827586 C5.73848319,11.4827586 5.8290692,11.4525148 5.90433691,11.3904615 C6.07650707,11.2476433 6.10135676,10.9911053 5.96027708,10.8168596 C5.52769578,10.2846521 4.84136017,9.22096258 4.84136017,8.63147506" id="Fill-1"></path>
                        <path d="M13.4068605,8.22413793 C13.1838414,8.22413793 13.0034139,8.40632863 13.0034139,8.63147984 C13.0034139,9.21898853 12.3170328,10.2838743 11.884385,10.81731 C11.7433338,10.9910996 11.7685255,11.2476788 11.9407449,11.3904986 C12.0156016,11.4525526 12.1062314,11.4827586 12.1964452,11.4827586 C12.3130989,11.4827586 12.4285423,11.4318552 12.5085054,11.3340198 C12.6416889,11.1697007 13.8103448,9.7011008 13.8103448,8.63147984 C13.8103448,8.40632863 13.6298795,8.22413793 13.4068605,8.22413793" id="Fill-3"></path>
                        <path d="M8.92241379,8.22413793 C8.70799161,8.22413793 8.53448276,8.40632863 8.53448276,8.63147984 L8.53448276,11.0754549 C8.53448276,11.3006061 8.70799161,11.4827586 8.92241379,11.4827586 C9.13683597,11.4827586 9.31034483,11.3006061 9.31034483,11.0754549 L9.31034483,8.63147984 C9.31034483,8.40632863 9.13683597,8.22413793 8.92241379,8.22413793" id="Fill-5"></path>
                        <path d="M14.9805618,9.50377664 C14.9590078,9.51255931 14.9386044,9.52295279 14.9194282,9.53530223 C14.8678827,9.56728804 14.8255418,9.60962898 14.7940162,9.65837476 C14.7620304,9.70669866 14.740438,9.76265466 14.7316937,9.82259931 C14.7280886,9.84534222 14.7268997,9.86812349 14.7272832,9.89128828 L14.7272832,13.9090752 L3.2774725,13.9090752 L3.28272676,9.89688771 C3.28311029,9.87448997 3.28192137,9.8517087 3.27869977,9.82977119 C3.2699171,9.76783222 3.24717418,9.71030377 3.21399944,9.66036908 C3.18281902,9.61361762 3.14208888,9.57288748 3.09253771,9.54170706 C3.07217264,9.52893574 3.05061864,9.51773687 3.0282209,9.50857067 C1.68550688,8.9212819 0.818169615,7.59893295 0.818169615,6.13636799 C0.818169615,4.10607394 2.46973471,2.4545472 4.49999041,2.4545472 C4.57934132,2.4545472 4.66310274,2.46413527 4.74529172,2.47061681 C4.3313937,3.1899909 4.09092478,4.02116195 4.09092478,4.9090944 C4.09092478,5.1351812 4.27386525,5.31816003 4.49999041,5.31816003 C4.72611557,5.31816003 4.9090944,5.1351812 4.9090944,4.9090944 C4.9090944,2.65348058 6.74440536,0.818169615 9.00001918,0.818169615 C11.2555946,0.818169615 13.0909056,2.65348058 13.0909056,4.9090944 C13.0909056,5.1351812 13.2738844,5.31816003 13.5000096,5.31816003 C13.7261347,5.31816003 13.9091136,5.1351812 13.9091136,4.9090944 C13.9091136,4.02116195 13.6686063,3.1899909 13.2547083,2.47061681 C13.3369356,2.46413527 13.4206587,2.4545472 13.5000096,2.4545472 C15.5302653,2.4545472 17.1818304,4.10607394 17.1818304,6.13636799 C17.1818304,7.59375539 16.3180982,8.91449355 14.9805618,9.50377664 M13.8763224,17.181792 L4.12525009,17.181792 C3.89793601,17.181792 3.68419864,17.0931215 3.52319568,16.9321186 C3.3626146,16.7711156 3.27390573,16.5573782 3.27432761,16.3296806 L3.27643699,14.7272448 L14.7272832,14.7272448 L14.7272832,16.3308696 C14.7272832,16.7998798 14.345371,17.181792 13.8763224,17.181792 M13.5000096,1.63633923 C13.2521387,1.63633923 12.9930305,1.6691688 12.7239508,1.71910349 C11.8229786,0.668787407 10.4892006,0 9.00001918,0 C7.51079937,0 6.17702143,0.668787407 5.27601085,1.71910349 C5.00696947,1.6691688 4.74789968,1.63633923 4.49999041,1.63633923 C2.01867331,1.63633923 0,3.65505089 0,6.13636799 C0,7.83664051 0.958807499,9.3823149 2.46413527,10.1465612 L2.45615799,16.3288752 C2.45573612,16.7751426 2.62912687,17.1946017 2.94434442,17.5102028 C3.2599455,17.8262257 3.67902108,18 4.12525009,18 L13.8763224,18 C14.7967776,18 15.5454528,17.2513248 15.5454528,16.3308696 L15.5454528,10.1405782 C17.0451811,9.37433762 18,7.83104107 18,6.13636799 C18,3.65505089 15.9813267,1.63633923 13.5000096,1.63633923" id="Fill-7"></path>
                    </g>
                </g>
            </g>
        </g>
    </g>
</svg>