<?xml version="1.0" encoding="UTF-8"?>
<svg width="50px" height="50px" viewBox="0 0 50 50" version="1.1" xmlns="http://www.w3.org/2000/svg" xmlns:xlink="http://www.w3.org/1999/xlink">
    <!-- Generator: Sketch 51.3 (57544) - http://www.bohemiancoding.com/sketch -->
    <title>icon-instagram</title>
    <desc>Created with Sketch.</desc>
    <defs></defs>
    <g id="icon-instagram" stroke="none" stroke-width="1" fill="none" fill-rule="evenodd">
        <g>
            <rect id="Rectangle" fill-rule="nonzero" x="0" y="0" width="50" height="50"></rect>
            <g id="Group" fill="#E1306C">
                <path d="M25.0231,20.5179 C22.5021,20.5159 20.4971,22.5099 20.4751,25.0389 C20.4541,27.5439 22.4821,29.5909 24.9871,29.5929 C27.4661,29.5949 29.4931,27.5829 29.5091,25.1009 C29.5261,22.5769 27.5131,20.5199 25.0231,20.5179" id="Fill-1"></path>
                <path d="M32.2077,19.4173 C31.3127,19.4143 30.6067,18.7113 30.5987,17.8163 C30.5907,16.8913 31.2997,16.1753 32.2207,16.1783 C33.1107,16.1813 33.8267,16.8843 33.8437,17.7733 C33.8597,18.6703 33.1137,19.4203 32.2077,19.4173 M25.0057,32.0573 C21.1677,32.0663 18.0037,28.9193 18.0097,25.1003 C18.0167,21.1643 21.0897,18.0853 25.0337,18.0623 C28.8407,18.0413 31.9787,21.2083 31.9747,25.0693 C31.9717,28.9133 28.8447,32.0483 25.0057,32.0573 M30.6907,14.0663 C26.9237,14.0613 23.1557,14.0613 19.3887,14.0663 C16.2197,14.0713 14.0047,16.2693 13.9947,19.4353 C13.9817,23.2043 13.9827,26.9733 13.9937,30.7433 C14.0027,33.8003 16.2307,36.0213 19.2887,36.0343 C21.1817,36.0423 23.0747,36.0363 24.9677,36.0363 C26.8797,36.0363 28.7917,36.0423 30.7037,36.0343 C33.7107,36.0203 35.9507,33.8433 35.9757,30.8403 C36.0077,26.9773 36.0107,23.1143 35.9747,19.2513 C35.9457,16.2503 33.6927,14.0713 30.6907,14.0663" id="Fill-3"></path>
                <path d="M38.4509,30.8211 C38.3749,35.0781 35.0449,38.3891 30.7889,38.4561 C26.9279,38.5151 23.0639,38.5141 19.2019,38.4561 C14.8829,38.3911 11.5489,34.9821 11.5199,30.6611 C11.4939,26.8731 11.4919,23.0831 11.5209,19.2951 C11.5539,14.9351 14.9679,11.5481 19.3339,11.5091 C21.2269,11.4911 23.1209,11.5061 25.0139,11.5061 L25.0139,11.5641 C27.1699,11.5641 29.3379,11.4151 31.4769,11.5961 C35.4559,11.9331 38.3909,15.1681 38.4529,19.1731 C38.5129,23.0551 38.5199,26.9391 38.4509,30.8211 M24.9999,0.0001 C11.1929,0.0001 -0.0001,11.1931 -0.0001,25.0001 C-0.0001,38.8071 11.1929,50.0001 24.9999,50.0001 C38.8069,50.0001 49.9999,38.8071 49.9999,25.0001 C49.9999,11.1931 38.8069,0.0001 24.9999,0.0001" id="Fill-5"></path>
            </g>
        </g>
    </g>
</svg>