<?xml version="1.0" encoding="UTF-8"?>
<svg width="50px" height="50px" viewBox="0 0 50 50" version="1.1" xmlns="http://www.w3.org/2000/svg" xmlns:xlink="http://www.w3.org/1999/xlink">
    <!-- Generator: Sketch 51.3 (57544) - http://www.bohemiancoding.com/sketch -->
    <title>icon-people</title>
    <desc>Created with Sketch.</desc>
    <defs></defs>
    <g id="icon-people" stroke="none" stroke-width="1" fill="none" fill-rule="evenodd">
        <path d="M34.1064509,30 L34.2181228,29.9676865 C37.0337046,29.1461783 39,26.3905216 39,23.2663669 L39,19.9458457 C39,16.1157656 36.0913099,13 32.5160691,13 C31.3056619,13 30.1231001,13.3629053 29.0960088,14.0489454 L29,14.1132617 L29.0348068,14.2282231 C29.1421279,14.5867785 29.2308853,14.9524802 29.2984685,15.3153855 L29.341977,15.5502796 L29.5244228,15.4117045 C30.4073558,14.7411997 31.4414085,14.3866835 32.5160691,14.3866835 C35.37748,14.3866835 37.7054763,16.8804145 37.7054763,19.9458457 L37.7054763,23.2663669 C37.7054763,25.9194904 35.9404803,28.2134371 33.5083536,28.7205103 L33.249913,28.7745732 L33.4309085,28.9796396 C33.6884789,29.2720145 33.8915187,29.5699821 34.0522102,29.890942 L34.1064509,30 Z" id="Fill-1" fill="#FFFFFF"></path>
        <path d="M28.9661486,28.9195188 L26.1803932,28.0612474 C25.996192,28.0037753 25.8013417,28.0291774 25.6338337,28.1330082 C25.4660379,28.2371566 25.3451559,28.4073502 25.2933493,28.6115191 C25.2418305,28.815688 25.2651435,29.0300177 25.3595466,29.2148175 C25.4536619,29.3999348 25.6073548,29.532978 25.7924194,29.5898151 L28.5729942,30.4468163 C29.8920475,30.8649974 30.5609281,31.5394215 30.5609281,32.4510371 L30.5609281,35.4389518 C30.5609281,36.5271116 29.7585016,37.4123726 28.7721617,37.4123726 L9.22783829,37.4123726 C8.24149841,37.4123726 7.43907191,36.5271116 7.43907191,35.4389518 L7.43907191,32.4510371 C7.43907191,32.1135075 7.43907191,31.0853601 9.41894704,30.4493565 L12.3365214,29.5593326 C12.7181633,29.4428008 12.943522,29.0049332 12.8381819,28.5823067 C12.7328418,28.1606329 12.3347945,27.9120105 11.9528649,28.0288598 L9.02665604,28.9223765 C6.52497343,29.726351 6,31.2850836 6,32.4510371 L6,35.4389518 C6,37.4025293 7.44799416,39 9.22783829,39 L28.7721617,39 C30.5520058,39 32,37.4025293 32,35.4389518 L32,32.4510371 C32,31.2787331 31.4738753,29.7146026 28.9661486,28.9195188" id="Fill-11" fill="#FFFFFF"></path>
        <path d="M41.4105857,28.7268664 L39.0441778,28.0252557 C38.8818631,27.9770238 38.7124912,27.9982938 38.5657022,28.0854708 C38.4186309,28.1732471 38.3130558,28.3167447 38.2678899,28.4887022 C38.2224418,28.6603601 38.2430487,28.8410054 38.3254764,28.9964862 C38.407904,29.1522665 38.5425547,29.2646081 38.7043049,29.3125405 L41.0653493,30.0123536 C42.1767114,30.3514754 42.7401553,30.8958078 42.7401553,31.630372 L42.7401553,34.0713299 C42.7401553,34.9490921 42.0671842,35.6629854 41.2400847,35.6629854 L34.6805928,35.6629854 L34.6461538,35.7606477 C34.5185603,36.1225374 34.3531404,36.4607604 34.1541284,36.7648316 L34,37 L41.2400847,37 C42.7618913,37 44,35.6860529 44,34.0713299 L44,31.630372 C44,30.6660318 43.5505999,29.3793463 41.4105857,28.7268664" id="Fill-3" fill="#FFFFFF"></path>
        <path d="M13.4568482,21.9339475 L13.4568482,18.0660525 C13.4568482,14.4823588 16.1677512,11.5667105 19.4995629,11.5667105 C22.8319574,11.5667105 25.5431518,14.4823588 25.5431518,18.0660525 L25.5431518,21.9339475 C25.5431518,25.5179545 22.8319574,28.4332895 19.4995629,28.4332895 C16.1677512,28.4332895 13.4568482,25.5179545 13.4568482,21.9339475 M19.4995629,30 C23.6352635,30 27,26.3815253 27,21.9339475 L27,18.0660525 C27,13.6184747 23.6352635,10 19.4995629,10 C15.3641538,10 12,13.6184747 12,18.0660525 L12,21.9352009 C12,26.382152 15.3641538,30 19.4995629,30" id="Fill-8" fill="#FFFFFF"></path>
    </g>
</svg>