<?xml version="1.0" encoding="UTF-8"?>
<svg width="50px" height="50px" viewBox="0 0 50 50" version="1.1" xmlns="http://www.w3.org/2000/svg" xmlns:xlink="http://www.w3.org/1999/xlink">
    <!-- Generator: Sketch 51.3 (57544) - http://www.bohemiancoding.com/sketch -->
    <title>icon-print</title>
    <desc>Created with Sketch.</desc>
    <defs></defs>
    <g id="icon-print" stroke="none" stroke-width="1" fill="none" fill-rule="evenodd">
        <g id="Group">
            <rect id="Rectangle-4" fill-rule="nonzero" x="0" y="0" width="50" height="50"></rect>
            <g id="Printer" transform="translate(13.000000, 12.000000)" fill="#FCA311">
                <polygon id="Fill-5" points="3.84615385 6.75 20.1923077 6.75 20.1923077 0 3.84615385 0"></polygon>
                <path d="M3.98960345,12.2927589 L21.0103965,12.2927589 C21.0103965,12.2927589 21.5884559,12.2927589 21.5884559,12.8926115 C21.5884559,13.5 21.0103965,13.5 21.0103965,13.5 L3.98960345,13.5 C3.98960345,13.5 3.40728326,13.5 3.40728326,12.8926115 C3.40728326,12.2927589 3.98960345,12.2927589 3.98960345,12.2927589 M0,10.0139218 L0,16.9785424 C0,18.3214286 1.24843768,18.3214286 1.24843768,18.3214286 L3.40728326,18.3214286 L3.40728326,15.9069464 L21.5884559,15.9069464 L21.5884559,18.3214286 L23.7458811,18.3214286 C23.7458811,18.3214286 25,18.3214286 25,16.9785424 L25,10.0139218 C25,10.0139218 25,8.67857143 23.7458811,8.67857143 L1.24843768,8.67857143 C0,8.67857143 0,10.0139218 0,10.0139218" id="Fill-2"></path>
                <path d="M3.84615385,27 L20.1923077,27 L20.1923077,17.3571429 L3.84615385,17.3571429 L3.84615385,27 Z M6.18444641,20.976038 L17.8613132,20.976038 L17.8613132,19.7697396 L6.18444641,19.7697396 L6.18444641,20.976038 Z M6.18444641,23.3811048 L17.8613132,23.3811048 L17.8613132,22.1748065 L6.18444641,22.1748065 L6.18444641,23.3811048 Z" id="Fill-1"></path>
            </g>
        </g>
    </g>
</svg>