<?xml version="1.0" encoding="UTF-8"?>
<svg width="50px" height="50px" viewBox="0 0 50 50" version="1.1" xmlns="http://www.w3.org/2000/svg" xmlns:xlink="http://www.w3.org/1999/xlink">
    <!-- Generator: Sketch 51.3 (57544) - http://www.bohemiancoding.com/sketch -->
    <title>icon-next-doble</title>
    <desc>Created with Sketch.</desc>
    <defs></defs>
    <g id="icon-next-doble" stroke="none" stroke-width="1" fill="none" fill-rule="evenodd">
        <rect id="Rectangle" fill-rule="nonzero" transform="translate(25.000000, 25.000000) rotate(-720.000000) translate(-25.000000, -25.000000) " x="-5.68434189e-14" y="3.55271368e-15" width="50" height="50"></rect>
        <g id="Group" transform="translate(25.500000, 25.000000) rotate(-180.000000) translate(-25.500000, -25.000000) translate(12.000000, 10.000000)" fill="#979797" fill-rule="nonzero">
            <path d="M2.89478677,15 L17.6605937,28.2271092 C18.1250679,28.643182 18.1110781,29.3056863 17.6293464,29.7068539 C17.1476147,30.1080215 16.3805633,30.0959384 15.9160891,29.6798655 L0.339405034,15.7263782 C-0.113135011,15.3209959 -0.113135011,14.6790041 0.339405034,14.2736218 L15.9160891,0.320134464 C16.3805633,-0.0959383961 17.1476147,-0.108021504 17.6293464,0.293146087 C18.1110781,0.694313678 18.1250679,1.35681796 17.6605937,1.77289082 L2.89478677,15 Z" id="Path-2" transform="translate(9.000000, 15.000000) rotate(-720.000000) translate(-9.000000, -15.000000) "></path>
            <path d="M11.8947868,15 L26.6605937,28.2271092 C27.1250679,28.643182 27.1110781,29.3056863 26.6293464,29.7068539 C26.1476147,30.1080215 25.3805633,30.0959384 24.9160891,29.6798655 L9.33940503,15.7263782 C8.88686499,15.3209959 8.88686499,14.6790041 9.33940503,14.2736218 L24.9160891,0.320134464 C25.3805633,-0.0959383961 26.1476147,-0.108021504 26.6293464,0.293146087 C27.1110781,0.694313678 27.1250679,1.35681796 26.6605937,1.77289082 L11.8947868,15 Z" id="Path-2" transform="translate(18.000000, 15.000000) rotate(-720.000000) translate(-18.000000, -15.000000) "></path>
        </g>
    </g>
</svg>