<?xml version="1.0" encoding="UTF-8"?>
<svg width="30px" height="30px" viewBox="0 0 30 30" version="1.1" xmlns="http://www.w3.org/2000/svg" xmlns:xlink="http://www.w3.org/1999/xlink">
    <!-- Generator: Sketch 51.3 (57544) - http://www.bohemiancoding.com/sketch -->
    <title>icon-pinterest-color</title>
    <desc>Created with Sketch.</desc>
    <defs></defs>
    <g id="icon-pinterest-color" stroke="none" stroke-width="1" fill="none" fill-rule="evenodd">
        <g id="icon-pinterest">
            <rect id="Rectangle" fill-rule="nonzero" x="0" y="0" width="30" height="30"></rect>
            <g id="Group-3" fill="#C8232C">
                <path d="M14.149774,19.0286593 C14.2772704,19.1845733 14.3794653,19.333481 14.5050422,19.4590437 C15.1369984,20.0910146 15.9150055,20.434415 16.7928227,20.5206431 C18.0771217,20.6467873 19.2785656,20.3540014 20.3819444,19.687958 C21.6399822,18.9285347 22.5076497,17.8254203 23.1134029,16.5053693 C23.7857834,15.040161 24.052409,13.49012 24.0515365,11.8868189 C24.0508676,10.7288162 23.7686249,9.64119719 23.2087052,8.63091018 C22.2457063,6.89341189 20.7965984,5.72165805 18.9179754,5.11692782 C16.5432683,4.35250416 14.183713,4.50539471 11.9047735,5.4858246 C9.62321666,6.46733016 8.06830769,8.16092947 7.3330224,10.5480454 C6.83722903,12.1577424 6.90333287,13.7640962 7.57423018,15.3210854 C7.97413952,16.2491272 8.62485378,16.9519178 9.56810589,17.3575037 C9.92869611,17.5125456 10.1732483,17.3925938 10.2720115,17.0152952 C10.3504462,16.7156192 10.4121005,16.4107685 10.5063268,16.1162383 C10.6052935,15.8068523 10.5460822,15.557384 10.3307866,15.3145441 C9.96411823,14.9010216 9.73483415,14.412173 9.61434659,13.8726807 C9.46198494,13.1906767 9.47428671,12.5049805 9.59587939,11.822831 C9.90621556,10.0816987 10.7781872,8.69643886 12.2922938,7.76435599 C13.8727661,6.79145579 15.5951304,6.61074318 17.3769096,7.03243501 C19.5181157,7.53916295 20.8344052,9.14903441 20.9339827,11.3388957 C20.9912456,12.5983021 20.8269311,13.8332589 20.4317331,15.0325731 C20.1548705,15.8727589 19.7687461,16.65669 19.1572347,17.3094474 C18.4872389,18.0246519 17.6840176,18.4437854 16.676552,18.330433 C15.9942545,18.2536824 15.4618757,17.9167651 15.1316182,17.3035458 C14.871856,16.8212384 14.8635676,16.3098299 15.013021,15.7926941 C15.2844743,14.8533141 15.5657573,13.9167541 15.832383,12.9760368 C15.9924223,12.411339 16.1257933,11.8394312 16.0821991,11.2447891 C16.0460499,10.751318 15.8948806,10.3022111 15.5186151,9.96020612 C15.0184303,9.50551737 14.2104104,9.41896952 13.5408218,9.74216484 C12.8992685,10.0518416 12.4898783,10.5765943 12.2370377,11.2226361 C11.7825992,12.3838367 11.8581257,13.5450664 12.2778982,14.7004236 C12.3070676,14.78075 12.3174209,14.8812234 12.2985174,14.9636139 C12.0829602,15.9025578 11.8599288,16.8397865 11.6390494,17.7775094 C11.3183018,19.1394243 10.9770222,20.4968911 10.6825068,21.8644461 C10.3525692,23.3963169 10.4566835,24.9378397 10.677272,26.4745365 C10.6855022,26.5318377 10.754398,26.6132689 10.8062515,26.6229208 C10.867266,26.6342299 10.96632,26.5995468 11.0047957,26.5503567 C11.8532689,25.4660519 12.6191487,24.3256379 13.0752158,23.018524 C13.351962,22.2253771 13.5344819,21.3991169 13.7526566,20.5859101 C13.8902736,20.0728445 14.0156469,19.5564646 14.149774,19.0286593 M29.9997482,15.0044022 C30.0478793,23.2571775 23.1896273,30.2368533 14.5556743,29.993839 C6.56074454,29.7687914 -0.112137449,23.1794966 0.00142854697,14.7762147 C0.112871542,6.53067842 6.89911596,-0.15964211 15.3074201,0.00290039726 C23.5593493,0.162448471 30.0443894,6.94376489 29.9997482,15.0044022" id="Fill-1"></path>
            </g>
        </g>
    </g>
</svg>