<?xml version="1.0" encoding="UTF-8"?>
<svg width="50px" height="50px" viewBox="0 0 50 50" version="1.1" xmlns="http://www.w3.org/2000/svg" xmlns:xlink="http://www.w3.org/1999/xlink">
    <!-- Generator: Sketch 51.3 (57544) - http://www.bohemiancoding.com/sketch -->
    <title>icon-clock</title>
    <desc>Created with Sketch.</desc>
    <defs></defs>
    <g id="icon-clock" stroke="none" stroke-width="1" fill="none" fill-rule="evenodd">
        <g id="Clock" transform="translate(8.000000, 8.000000)" fill="#FFFFFF" stroke="#FFFFFF" stroke-width="0.8">
            <path d="M29.5220935,17.7293007 L32.5122265,17.7293007 C32.1300729,25.7288181 25.7290004,32.1267911 17.7293007,32.5049335 L17.7293007,29.5148005 C17.7293007,29.111953 17.4027563,28.7854998 17,28.7854998 C16.5971525,28.7854998 16.2706993,29.111953 16.2706993,29.5148005 L16.2706993,32.5049335 C8.27373445,32.1231446 1.87685543,25.7261744 1.4950665,17.7293007 L4.48519949,17.7293007 C4.88795581,17.7293007 5.21450021,17.4027563 5.21450021,17 C5.21450021,16.5972437 4.88795581,16.2706993 4.48519949,16.2706993 L1.4950665,16.2706993 C1.87685543,8.27382561 8.27373445,1.87685543 16.2706993,1.4950665 L16.2706993,4.48519949 C16.2706993,4.88795581 16.5971525,5.21450021 17,5.21450021 C17.4027563,5.21450021 17.7293007,4.88795581 17.7293007,4.48519949 L17.7293007,1.4950665 C25.7260832,1.87685543 32.1230534,8.27382561 32.5049335,16.2706993 L29.5148005,16.2706993 C29.111953,16.2706993 28.7854998,16.5972437 28.7854998,17 C28.7854998,17.4027563 29.111953,17.7293007 29.5148005,17.7293007 L29.5220935,17.7293007 Z M17,0 C7.61107357,0 0,7.61116474 0,17 C0,26.3888353 7.61107357,34 17,34 C26.3888353,34 34,26.3888353 34,17 C33.9878754,7.61617868 26.3838213,0.012033462 17,0 Z" id="Fill-1"></path>
            <path d="M17.520833,16.8860271 L17.520833,9.71109352 C17.520833,9.31830323 17.1803565,9 16.7604165,9 C16.3404765,9 16,9.31830323 16,9.71109352 L16,17.1775754 C16.0008555,17.3640597 16.0800338,17.5428997 16.2205208,17.675252 L23.6954148,24.7861872 C23.9894109,25.0670691 24.4711347,25.0717801 24.7714042,24.7969424 C25.0716736,24.5220159 25.0768064,24.0714493 24.7828104,23.7907451 L17.520833,16.8860271 Z" id="Fill-4"></path>
        </g>
    </g>
</svg>