<?xml version="1.0" encoding="UTF-8"?>
<svg width="50px" height="50px" viewBox="0 0 50 50" version="1.1" xmlns="http://www.w3.org/2000/svg" xmlns:xlink="http://www.w3.org/1999/xlink">
    <!-- Generator: Sketch 51.3 (57544) - http://www.bohemiancoding.com/sketch -->
    <title>icon-hand</title>
    <desc>Created with Sketch.</desc>
    <defs></defs>
    <g id="icon-hand" stroke="none" stroke-width="1" fill="none" fill-rule="evenodd">
        <path d="M38.2245008,31.7083654 C38.2245008,38.6237929 32.5162512,44.2500148 25.5,44.2500148 C18.4837488,44.2500148 12.7754992,38.6237929 12.7754992,31.7083654 L12.7754992,28.4231886 C13.4828316,28.9293797 14.351737,29.2291309 15.2907896,29.2291309 C17.1130837,29.2291309 18.6725511,28.1032644 19.2935971,26.5206173 C20.0461917,27.1625096 21.025908,27.5520173 22.0969599,27.5520173 C22.7757106,27.5520173 23.4366089,27.3940992 24.0353845,27.0929261 C24.7481268,27.3884116 25.5303851,27.5520173 26.3507826,27.5520173 L26.8153949,27.5520173 C24.4514889,29.2355294 22.9107755,31.97488 22.9107755,35.0624148 L22.9107755,36.7395284 C22.9107755,37.2227916 23.3082161,37.614521 23.798525,37.614521 C24.2887439,37.614521 24.6862746,37.2227916 24.6862746,36.7395284 L24.6862746,35.0624148 C24.6862746,30.9212631 28.1045523,27.5520173 32.3060801,27.5520173 C32.7963891,27.5520173 33.1939199,27.1602879 33.1939199,26.6771136 C33.1939199,26.1938503 32.7963891,25.8020321 32.3060801,25.8020321 L26.3507826,25.8020321 C25.6810483,25.8020321 25.04774,25.6466912 24.4847593,25.3716452 C24.4336366,25.3384975 24.3796287,25.3107708 24.3233666,25.2889093 C23.0195126,24.5811659 22.1340171,23.2136679 22.1340171,21.6458617 C22.1340171,21.2034777 22.4989989,20.8437407 22.9476523,20.8437407 L35.7092104,20.8437407 C37.0961049,20.8437407 38.2245008,21.9558327 38.2245008,23.3228864 L38.2245008,31.7083654 Z M12.7754992,19.9686593 C12.7754992,18.6016944 13.9038951,17.4895136 15.2907896,17.4895136 C16.6777744,17.4895136 17.8061703,18.6016944 17.8061703,19.9686593 L17.8061703,23.3228864 L17.8061703,25 C17.8061703,26.3670537 16.6777744,27.4790568 15.2907896,27.4790568 C13.9038951,27.4790568 12.7754992,26.3670537 12.7754992,25 L12.7754992,23.3228864 L12.7754992,19.9686593 Z M19.5815793,18.2916346 C19.5815793,16.9245808 20.7099752,15.8124889 22.0969599,15.8124889 C23.4838545,15.8124889 24.6122504,16.9245808 24.6122504,18.2916346 L24.6122504,19.0937556 L22.9476523,19.0937556 C21.5199137,19.0937556 20.3584278,20.2386397 20.3584278,21.6458617 C20.3584278,23.2651223 21.0234736,24.7340186 22.0979517,25.8020321 L22.0969599,25.8020321 C20.7099752,25.8020321 19.5815793,24.6899402 19.5815793,23.3228864 L19.5815793,19.9686593 L19.5815793,18.2916346 Z M26.3877496,16.614521 C26.3877496,15.2474673 27.5160553,14.1353753 28.9030401,14.1353753 C30.2900248,14.1353753 31.4184207,15.2474673 31.4184207,16.614521 L31.4184207,18.2916346 L31.4184207,19.0937556 L26.3877496,19.0937556 L26.3877496,18.2916346 L26.3877496,16.614521 Z M33.1939199,8.22913087 C33.1939199,6.86207714 34.3222256,5.74998519 35.7092104,5.74998519 C37.0961049,5.74998519 38.2245008,6.86207714 38.2245008,8.22913087 L38.2245008,19.8996978 C37.5171684,19.3934179 36.648263,19.0937556 35.7092104,19.0937556 L33.1939199,19.0937556 L33.1939199,18.2916346 L33.1939199,16.614521 L33.1939199,8.22913087 Z M35.7092104,4 C33.3431404,4 31.4184207,5.89715031 31.4184207,8.22913087 L31.4184207,13.1913324 C30.7110882,12.6850524 29.8420927,12.3853901 28.9030401,12.3853901 C27.0807461,12.3853901 25.5212786,13.5112566 24.9003227,15.0939037 C24.147638,14.4521002 23.1679217,14.0625037 22.0969599,14.0625037 C20.2746659,14.0625037 18.7151985,15.1883702 18.0941524,16.7710172 C17.3415579,16.1291249 16.3617514,15.7395284 15.2907896,15.7395284 C12.9248099,15.7395284 11,17.6367676 11,19.9686593 L11,23.3228864 L11,25 L11,31.7083654 C11,39.5888086 17.5046636,46 25.5,46 C33.4953364,46 40,39.5888086 40,31.7083654 L40,23.3228864 L40,8.22913087 C40,5.89715031 38.0751901,4 35.7092104,4 Z" id="Fill-1" stroke="#FFFFFF" stroke-width="0.7" fill="#FFFFFF"></path>
    </g>
</svg>