<?xml version="1.0" encoding="UTF-8"?>
<svg width="50px" height="50px" viewBox="0 0 50 50" version="1.1" xmlns="http://www.w3.org/2000/svg" xmlns:xlink="http://www.w3.org/1999/xlink">
    <!-- Generator: Sketch 51.3 (57544) - http://www.bohemiancoding.com/sketch -->
    <title>icon-search</title>
    <desc>Created with Sketch.</desc>
    <defs></defs>
    <g id="icon-search" stroke="none" stroke-width="1" fill="none" fill-rule="evenodd">
        <g id="Group-2" fill-rule="nonzero">
            <rect id="Rectangle" x="0" y="0" width="50" height="50"></rect>
            <g id="Group-41" transform="translate(12.000000, 12.000000)" fill="#002654">
                <path d="M16.25,9.5 C16.25,5.77235594 13.2276441,2.75 9.5,2.75 C5.77235594,2.75 2.75,5.77235594 2.75,9.5 C2.75,13.2276441 5.77235594,16.25 9.5,16.25 C13.2276441,16.25 16.25,13.2276441 16.25,9.5 Z M18.75,9.5 C18.75,14.6083559 14.6083559,18.75 9.5,18.75 C4.39164406,18.75 0.25,14.6083559 0.25,9.5 C0.25,4.39164406 4.39164406,0.25 9.5,0.25 C14.6083559,0.25 18.75,4.39164406 18.75,9.5 Z" id="Stroke-1417"></path>
                <path d="M15.3323055,16.9369181 C14.8892315,16.4938442 14.8892315,15.7754794 15.3323055,15.3324055 C15.7753794,14.8893315 16.4937442,14.8893315 16.9368181,15.3324055 L25.4178945,23.8134819 C25.8609685,24.2565558 25.8609685,24.9749206 25.4178945,25.4179945 C24.9748206,25.8610685 24.2564558,25.8610685 23.8133819,25.4179945 L15.3323055,16.9369181 Z" id="Stroke-1418"></path>
            </g>
        </g>
    </g>
</svg>