<?xml version="1.0" encoding="UTF-8"?>
<svg width="18px" height="18px" viewBox="0 0 18 18" version="1.1" xmlns="http://www.w3.org/2000/svg" xmlns:xlink="http://www.w3.org/1999/xlink">
    <!-- Generator: Sketch 51.3 (57544) - http://www.bohemiancoding.com/sketch -->
    <title>icon-clock-blue</title>
    <desc>Created with Sketch.</desc>
    <defs></defs>
    <g id="Desktop" stroke="none" stroke-width="1" fill="none" fill-rule="evenodd">
        <g id="3.3.1-Recetas-/-detalle" transform="translate(-818.000000, -366.000000)" fill="#002654">
            <g id="detalles" transform="translate(722.000000, 365.000000)">
                <g id="icon-clock-blue" transform="translate(96.000000, 1.000000)">
                    <path d="M15.6276676,9.38509383 L17.2105094,9.38509383 C17.0082145,13.6196783 13.6197748,17.0064772 9.38509383,17.2066488 L9.38509383,15.623807 C9.38509383,15.4105576 9.21223592,15.237748 8.99903485,15.237748 C8.78578552,15.237748 8.61297587,15.4105576 8.61297587,15.623807 L8.61297587,17.2066488 C4.37974263,17.0045469 0.993522788,13.6182788 0.791420912,9.38509383 L2.37426273,9.38509383 C2.58746381,9.38509383 2.76032172,9.21223592 2.76032172,8.99903485 C2.76032172,8.78583378 2.58746381,8.61297587 2.37426273,8.61297587 L0.791420912,8.61297587 C0.993522788,4.37979088 4.37974263,0.993522788 8.61297587,0.791420912 L8.61297587,2.37426273 C8.61297587,2.58746381 8.78578552,2.76032172 8.99903485,2.76032172 C9.21223592,2.76032172 9.38509383,2.58746381 9.38509383,2.37426273 L9.38509383,0.791420912 C13.6182306,0.993522788 17.0044987,4.37979088 17.2066488,8.61297587 L15.623807,8.61297587 C15.4105576,8.61297587 15.237748,8.78583378 15.237748,8.99903485 C15.237748,9.21223592 15.4105576,9.38509383 15.623807,9.38509383 L15.6276676,9.38509383 Z M8.99903485,0 C4.02895979,0 0,4.02900804 0,8.99903485 C0,13.9690617 4.02895979,17.9980697 8.99903485,17.9980697 C13.9690617,17.9980697 17.9980697,13.9690617 17.9980697,8.99903485 C17.9916515,4.0316622 13.9664075,0.00636997319 8.99903485,0 Z" id="Fill-1"></path>
                    <path d="M9.36193029,8.8658445 L9.36193029,4.97050938 C9.36193029,4.75726005 9.18907239,4.5844504 8.97587131,4.5844504 C8.76267024,4.5844504 8.58981233,4.75726005 8.58981233,4.97050938 L8.58981233,9.02412869 C8.59024665,9.12537265 8.63044504,9.22246649 8.70176944,9.29432172 L12.4967292,13.1549115 C12.6459893,13.3074048 12.8905576,13.3099625 13.0430027,13.1607507 C13.1954477,13.0114906 13.1980536,12.766874 13.0487936,12.6144772 L9.36193029,8.8658445 Z" id="Fill-4"></path>
                </g>
            </g>
        </g>
    </g>
</svg>